<svg xmlns="http://www.w3.org/2000/svg" viewBox="0 0 500 357.2"><defs><style>.cls-1{fill:#ebebeb;}.cls-2{fill:#f0f0f0;}.cls-3{fill:#e6e6e6;}.cls-4{fill:#f5f5f5;}.cls-5{fill:#e0e0e0;}.cls-10,.cls-17,.cls-18,.cls-19,.cls-23,.cls-6,.cls-8,.cls-9{fill:#fff;}.cls-7{fill:#263238;}.cls-21,.cls-22,.cls-8{opacity:0.3;}.cls-12,.cls-9{opacity:0.7;}.cls-10,.cls-25{opacity:0.4;}.cls-11{fill:#407bff;}.cls-13{fill:#ce7a63;}.cls-14{opacity:0.1;}.cls-15,.cls-19{opacity:0.2;}.cls-16{fill:#ba4d3c;}.cls-17,.cls-24{opacity:0.6;}.cls-18{opacity:0.8;}.cls-20,.cls-21{fill:none;}.cls-23{opacity:0.5;}</style></defs><title>Admin</title><g id="Background_Complete" data-name="Background Complete"><rect class="cls-1" x="416.78" y="343.54" width="33.12" height="0.25"/><rect class="cls-1" x="322.53" y="346.26" width="8.69" height="0.25"/><rect class="cls-1" x="396.59" y="334.26" width="19.19" height="0.25"/><rect class="cls-1" x="52.46" y="335.94" width="43.19" height="0.25"/><rect class="cls-1" x="104.56" y="335.94" width="6.33" height="0.25"/><rect class="cls-1" x="131.47" y="340.16" width="93.68" height="0.25"/><path class="cls-1" d="M237,337.8H43.92a5.71,5.71,0,0,1-5.71-5.71V60.66A5.71,5.71,0,0,1,43.92,55H237a5.71,5.71,0,0,1,5.71,5.71V332.09A5.71,5.71,0,0,1,237,337.8ZM43.92,55.2a5.47,5.47,0,0,0-5.46,5.46V332.09a5.47,5.47,0,0,0,5.46,5.46H237a5.47,5.47,0,0,0,5.46-5.46V60.66A5.47,5.47,0,0,0,237,55.2Z" transform="translate(0 -54.95)"/><path class="cls-1" d="M453.31,337.8H260.21a5.72,5.72,0,0,1-5.71-5.71V60.66A5.72,5.72,0,0,1,260.21,55h193.1A5.71,5.71,0,0,1,459,60.66V332.09A5.71,5.71,0,0,1,453.31,337.8ZM260.21,55.2a5.47,5.47,0,0,0-5.46,5.46V332.09a5.47,5.47,0,0,0,5.46,5.46h193.1a5.47,5.47,0,0,0,5.46-5.46V60.66a5.47,5.47,0,0,0-5.46-5.46Z" transform="translate(0 -54.95)"/><rect class="cls-1" y="327.45" width="500" height="0.25"/><path class="cls-2" d="M248.64,260.35h-3v-35.9a15,15,0,0,0-14-15.16,14.75,14.75,0,0,0-15.47,14,.74.74,0,0,1-.73.71h-1.54a.74.74,0,0,1-.74-.75,17.79,17.79,0,0,1,17.44-17c9.92-.17,18,8.29,18,18.22Z" transform="translate(0 -54.95)"/><rect class="cls-3" x="421.37" y="209.32" width="21.32" height="118.09"/><rect class="cls-4" x="196.19" y="209.32" width="231" height="118.09"/><polygon class="cls-5" points="427.19 233.9 196.19 233.9 196.19 235.9 252.94 235.9 252.94 327.4 254.94 327.4 254.94 235.9 310.14 235.9 310.14 327.4 312.14 327.4 312.14 235.9 367.35 235.9 367.35 327.4 369.35 327.4 369.35 235.9 427.19 235.9 427.19 233.9"/><path class="cls-3" d="M247.19,341.36h0a2,2,0,0,1-2-2v-9a2,2,0,0,1,2-2h0a2,2,0,0,1,2,2v9A2,2,0,0,1,247.19,341.36Z" transform="translate(0 -54.95)"/><path class="cls-3" d="M260.69,341.36h0a2,2,0,0,1-2-2v-9a2,2,0,0,1,2-2h0a2,2,0,0,1,2,2v9A2,2,0,0,1,260.69,341.36Z" transform="translate(0 -54.95)"/><path class="cls-3" d="M361.6,341.36h0a2,2,0,0,1-2-2v-9a2,2,0,0,1,2-2h0a2,2,0,0,1,2,2v9A2,2,0,0,1,361.6,341.36Z" transform="translate(0 -54.95)"/><path class="cls-3" d="M375.1,341.36h0a2,2,0,0,1-2-2v-9a2,2,0,0,1,2-2h0a2,2,0,0,1,2,2v9A2,2,0,0,1,375.1,341.36Z" transform="translate(0 -54.95)"/><rect class="cls-5" x="421.19" y="206.73" width="26.5" height="5.17"/><rect class="cls-1" x="191.19" y="206.73" width="238" height="5.17"/><path class="cls-3" d="M276.22,262.27H197.33a1.92,1.92,0,0,1-1.92-1.92h0a1.92,1.92,0,0,1,1.92-1.92h78.89a1.92,1.92,0,0,1,1.92,1.92h0A1.92,1.92,0,0,1,276.22,262.27Z" transform="translate(0 -54.95)"/><rect class="cls-5" x="253.19" y="200.25" width="2.99" height="3.8"/><polygon class="cls-2" points="257.46 201.2 251.9 201.2 252.98 194.55 256.38 194.55 257.46 201.2"/><rect class="cls-5" x="238.06" y="200.25" width="2.99" height="3.8"/><polygon class="cls-2" points="242.34 201.2 236.77 201.2 237.86 194.55 241.25 194.55 242.34 201.2"/><rect class="cls-5" x="302.67" y="17.46" width="1.8" height="140.37"/><rect class="cls-5" x="414.72" y="17.46" width="1.8" height="140.37"/><polygon class="cls-1" points="423.57 26.29 295.62 26.29 292.92 19.99 426.27 19.99 423.57 26.29"/><polygon class="cls-1" points="423.57 34.94 295.62 34.94 292.92 28.64 426.27 28.64 423.57 34.94"/><polygon class="cls-1" points="423.57 43.59 295.62 43.59 292.92 37.29 426.27 37.29 423.57 43.59"/><polygon class="cls-1" points="423.57 52.23 295.62 52.23 292.92 45.94 426.27 45.94 423.57 52.23"/><polygon class="cls-1" points="423.57 60.88 295.62 60.88 292.92 54.59 426.27 54.59 423.57 60.88"/><polygon class="cls-1" points="423.57 69.53 295.62 69.53 292.92 63.23 426.27 63.23 423.57 69.53"/><polygon class="cls-1" points="423.57 78.18 295.62 78.18 292.92 71.88 426.27 71.88 423.57 78.18"/><polygon class="cls-1" points="423.57 86.83 295.62 86.83 292.92 80.53 426.27 80.53 423.57 86.83"/><polygon class="cls-1" points="423.57 95.48 295.62 95.48 292.92 89.18 426.27 89.18 423.57 95.48"/><polygon class="cls-1" points="423.57 104.13 295.62 104.13 292.92 97.83 426.27 97.83 423.57 104.13"/><polygon class="cls-1" points="423.57 112.78 295.62 112.78 292.92 106.48 426.27 106.48 423.57 112.78"/><polygon class="cls-1" points="423.57 121.43 295.62 121.43 292.92 115.13 426.27 115.13 423.57 121.43"/><polygon class="cls-1" points="423.57 130.08 295.62 130.08 292.92 123.78 426.27 123.78 423.57 130.08"/><polygon class="cls-1" points="423.57 138.73 295.62 138.73 292.92 132.43 426.27 132.43 423.57 138.73"/><polygon class="cls-1" points="423.57 147.38 295.62 147.38 292.92 141.08 426.27 141.08 423.57 147.38"/><polygon class="cls-1" points="423.57 156.03 295.62 156.03 292.92 149.73 426.27 149.73 423.57 156.03"/><rect class="cls-5" x="292.92" y="156.03" width="133.35" height="3.6"/><rect class="cls-5" x="288.27" y="12.1" width="142.65" height="8.4"/><path class="cls-5" d="M289.74,151.61h0a1.45,1.45,0,0,1-1.45-1.45v-49a1.45,1.45,0,0,1,1.45-1.45h0a1.45,1.45,0,0,1,1.45,1.45v49A1.45,1.45,0,0,1,289.74,151.61Z" transform="translate(0 -54.95)"/><rect class="cls-5" x="289.21" y="18.81" width="1.05" height="29.1"/><rect class="cls-5" x="122.02" y="311.61" width="42.25" height="6.5" transform="translate(286.29 574.76) rotate(180)"/><path class="cls-2" d="M120.77,315.36h46a0,0,0,0,1,0,0v63.73a3.27,3.27,0,0,1-3.27,3.27H124a3.27,3.27,0,0,1-3.27-3.27V315.36A0,0,0,0,1,120.77,315.36Z" transform="translate(287.54 642.76) rotate(180)"/><rect class="cls-2" x="120.77" y="303.61" width="46" height="10" rx="3.61" ry="3.61" transform="translate(287.54 562.26) rotate(180)"/><polygon class="cls-5" points="153.27 327.4 174.77 327.4 174.77 324.4 153.27 322.4 153.27 327.4"/><path class="cls-5" d="M408.11,222.12H389.5a6.9,6.9,0,0,0-6.89,6.89v2.3h3.71V229a3.18,3.18,0,0,1,3.18-3.19h18.61a3.19,3.19,0,0,1,3.18,3.19v2.3H415V229A6.89,6.89,0,0,0,408.11,222.12Z" transform="translate(0 -54.95)"/><path class="cls-3" d="M430.16,236.34v20.85a5,5,0,0,1-5,5H379.88a5,5,0,0,1-5-5V236.34a5,5,0,0,1,5-5h45.24A5,5,0,0,1,430.16,236.34Z" transform="translate(0 -54.95)"/><path class="cls-4" d="M423.11,236.34v20.85a5,5,0,0,1-5,5H372.83a5,5,0,0,1-5-5V236.34a5,5,0,0,1,5-5h45.24A5,5,0,0,1,423.11,236.34Z" transform="translate(0 -54.95)"/><rect class="cls-6" x="383.82" y="179.94" width="23.61" height="23.61"/><rect class="cls-5" x="393.65" y="185.25" width="3.99" height="13.73"/><rect class="cls-5" x="393.65" y="240.2" width="3.99" height="13.73" transform="translate(148.58 587.75) rotate(-90)"/></g><g id="Character"><path class="cls-7" d="M346.77,237.11c.66-.08,19.78,1.81,21,22.3l-3.27,14.2h0a66.26,66.26,0,0,0-47.79.64l-.23.1,1.33-16.22S322.71,239.93,346.77,237.11Z" transform="translate(0 -54.95)"/><path class="cls-7" d="M306.62,336.07l3.84.33a660.41,660.41,0,0,1,8.25-72.75,29.92,29.92,0,0,1,12.7-19.26,19.75,19.75,0,0,1,4.5-2.43,24.81,24.81,0,0,1,9.29-2h0s0,0,0,0h0a28.05,28.05,0,0,1,3.88.27,20.1,20.1,0,0,1,8.11,3.15,39.15,39.15,0,0,1,3.28,2.81A17.69,17.69,0,0,1,362,248a21.19,21.19,0,0,1,3.28,16.81,602.77,602.77,0,0,0-8.51,66.56l3.84.26A599,599,0,0,1,369,265.59a25,25,0,0,0-3.93-19.87A23.24,23.24,0,0,0,347.87,236c-15-1-30.61,11.19-32.92,26.83A666.75,666.75,0,0,0,306.62,336.07Z" transform="translate(0 -54.95)"/><path class="cls-8" d="M306.62,336.07l3.84.33a660.41,660.41,0,0,1,8.25-72.75,29.92,29.92,0,0,1,12.7-19.26,19.75,19.75,0,0,1,4.5-2.43,24.81,24.81,0,0,1,9.29-2,0,0,0,0,0,0,0h0a28.05,28.05,0,0,1,3.88.27,20.1,20.1,0,0,1,8.11,3.15,39.15,39.15,0,0,1,3.28,2.81A17.69,17.69,0,0,1,362,248a21.19,21.19,0,0,1,3.28,16.81,602.77,602.77,0,0,0-8.51,66.56l3.84.26A599,599,0,0,1,369,265.59a25,25,0,0,0-3.93-19.87A23.24,23.24,0,0,0,347.87,236c-15-1-30.61,11.19-32.92,26.83A666.75,666.75,0,0,0,306.62,336.07Z" transform="translate(0 -54.95)"/><path class="cls-7" d="M272.34,324.37h88.34a0,0,0,0,1,0,0v2.05a7.33,7.33,0,0,1-7.33,7.33H279.68a7.33,7.33,0,0,1-7.33-7.33v-2.05A0,0,0,0,1,272.34,324.37Z" transform="translate(633.02 603.17) rotate(180)"/><polygon class="cls-7" points="357.69 355.96 362.38 355.96 358.54 278.8 352.56 278.8 357.69 355.96"/><polygon class="cls-8" points="357.69 355.96 362.38 355.96 358.54 278.8 352.56 278.8 357.69 355.96"/><polygon class="cls-7" points="326.32 355.96 331.01 355.96 328.45 278.8 322.48 278.8 326.32 355.96"/><polygon class="cls-8" points="326.32 355.96 331.01 355.96 328.45 278.8 322.48 278.8 326.32 355.96"/><polygon class="cls-7" points="302 355.96 306.69 355.96 310.53 278.8 304.56 278.8 302 355.96"/><polygon class="cls-8" points="302 355.96 306.69 355.96 310.53 278.8 304.56 278.8 302 355.96"/><polygon class="cls-7" points="270.63 355.96 275.33 355.96 280.45 278.8 274.47 278.8 270.63 355.96"/><polygon class="cls-8" points="270.63 355.96 275.33 355.96 280.45 278.8 274.47 278.8 270.63 355.96"/><rect class="cls-7" x="268.49" y="330.34" width="52.49" height="6.83" transform="translate(589.47 612.56) rotate(180)"/><rect class="cls-9" x="268.49" y="330.34" width="52.49" height="6.83" transform="translate(589.47 612.56) rotate(180)"/><rect class="cls-7" x="320.98" y="330.34" width="43.55" height="6.83" transform="translate(685.51 612.56) rotate(180)"/><rect class="cls-10" x="320.98" y="330.34" width="43.55" height="6.83" transform="translate(685.51 612.56) rotate(180)"/><path class="cls-11" d="M305.2,224.87c-9.54,1.88-28.44,10-28.56,9.56,0,0-15.91-3.77-22.45-11,0,0-6.25-.77-9.52-1.42,2.37,5.59,7,12.37,12.14,15.6,6.53,4.1,8.31,5.34,14.77,7.8,8.08,3.08,20.45-.19,28.46-3.47,2.95-1.21,6-2.75,7.71-5.43S307.85,226.66,305.2,224.87Z" transform="translate(0 -54.95)"/><path class="cls-9" d="M305.2,224.87c-9.54,1.88-28.44,10-28.56,9.56,0,0-15.91-3.77-22.45-11,0,0-6.25-.77-9.52-1.42,2.37,5.59,7,12.37,12.14,15.6,6.53,4.1,8.31,5.34,14.77,7.8,8.08,3.08,20.45-.19,28.46-3.47,2.95-1.21,6-2.75,7.71-5.43S307.85,226.66,305.2,224.87Z" transform="translate(0 -54.95)"/><path class="cls-11" d="M279.86,224.4H256.09c-3.32-12,3.33-24.07,0-36.1h23.77C283.19,200.33,276.53,212.37,279.86,224.4Z" transform="translate(0 -54.95)"/><g class="cls-12"><path class="cls-6" d="M279.86,224.4H256.09c-3.32-12,3.33-24.07,0-36.1h23.77C283.19,200.33,276.53,212.37,279.86,224.4Z" transform="translate(0 -54.95)"/></g><path class="cls-13" d="M259.81,218,256,219.83a6.26,6.26,0,0,1-2.3,3.09,16.21,16.21,0,0,1-3.38,1.43,4.58,4.58,0,0,1-4.8-1.33,1.82,1.82,0,0,1-.38-2l3.65-6.82a2.81,2.81,0,0,1,2.05-1.45l6-.95a2.08,2.08,0,0,1,2,.79l1.76,2.31A2.07,2.07,0,0,1,259.81,218Z" transform="translate(0 -54.95)"/><polygon class="cls-11" points="339.82 226.36 345.45 246.89 314.53 253.52 295.86 243.64 301.08 225.96 339.82 226.36"/><polygon class="cls-14" points="339.82 226.36 345.45 246.89 314.53 253.52 295.86 243.64 301.08 225.96 339.82 226.36"/><g id="freepik--Character--inject-5"><path class="cls-11" d="M298.07,236.68a77.77,77.77,0,0,0-.07,15.84c.29,7.08,1.83,14.52,3.76,26,3.87,2.27,23.48,1.33,36-.29-.76-10,.49-21.52,7.29-44.11,1.58-5.24-1.94-10.27-7.56-10.8-1.5-.15-3.1-.27-4.73-.34a129.9,129.9,0,0,0-17.2,0c-1.83.17-3.81.39-5.66.62C303.23,224.45,299.3,229.59,298.07,236.68Z" transform="translate(0 -54.95)"/><path class="cls-11" d="M301.08,280.92a170.46,170.46,0,0,0,38.05-.08.91.91,0,0,0,.69-1.09l0-.12c-.31-.73-.63-1.46-.92-2.19a.8.8,0,0,0-.82-.5,168.18,168.18,0,0,1-36.58,0,.81.81,0,0,0-.91.7.13.13,0,0,1,0,.06c-.08.76-.15,1.51-.22,2.27a.85.85,0,0,0,.75.95Z" transform="translate(0 -54.95)"/><path class="cls-11" d="M315.11,222.67c-9.35,12-10,41.66-7.65,99.92.21,5.08-4.66,4.71-9.43,3.73-7.1-1.47-9.92-.94-9.92-.94s11.33-29.75,9.49-56.43-.56-36.11,3.77-41S315.11,222.67,315.11,222.67Z" transform="translate(0 -54.95)"/><path class="cls-9" d="M315.11,222.67c-9.35,12-10,41.66-7.65,99.92.2,5.08-4.42,4.53-9.44,3.73a58.13,58.13,0,0,0-9.91-.94s11.33-29.75,9.49-56.43-.56-36.11,3.77-41S315.11,222.67,315.11,222.67Z" transform="translate(0 -54.95)"/><path class="cls-13" d="M331.57,203.6c-1.49,5.51-3.33,15.68.27,19.38,0,0-4.75,3.81-14.82,7.48-3-.77-2.37-7.48-2.37-7.48,6.29-1.48,6.47-6,5.71-10.35Z" transform="translate(0 -54.95)"/><path class="cls-15" d="M327,207.28l-6.65,5.34a17.32,17.32,0,0,1,.3,3c2.39-.34,5.82-2.92,6.26-5.4A8.58,8.58,0,0,0,327,207.28Z" transform="translate(0 -54.95)"/><path class="cls-7" d="M321.25,183.35a42.15,42.15,0,0,0-7.87,30.82c-3.16-6-6-2.73-6.23-9.49-.1-3.4,1.67-17.19,3.18-20.24s4.6-5.51,8-5.37a4.78,4.78,0,0,1,3.29,1.34C322.45,181.3,322,182.38,321.25,183.35Z" transform="translate(0 -54.95)"/><path class="cls-13" d="M336.3,192.49c-1.67,8.94-2.2,12.76-7.33,17-7.68,6.42-18.22,3-19.26-6.07-.91-8.21,2-21.45,11.21-24.4a11.65,11.65,0,0,1,15.38,13.43Z" transform="translate(0 -54.95)"/><path class="cls-7" d="M320.78,194.54c-.21.73-.78,1.24-1.24,1.14s-.69-.78-.48-1.51.78-1.25,1.25-1.15S321,193.8,320.78,194.54Z" transform="translate(0 -54.95)"/><path class="cls-7" d="M313.18,192.71c-.21.73-.77,1.24-1.24,1.14s-.69-.79-.47-1.51.77-1.25,1.24-1.14S313.4,192,313.18,192.71Z" transform="translate(0 -54.95)"/><path class="cls-7" d="M312.91,191.28l-1.6-.89S311.81,192,312.91,191.28Z" transform="translate(0 -54.95)"/><path class="cls-16" d="M315.31,194.46a22.61,22.61,0,0,1-3.95,4.11,3,3,0,0,0,2.44,1.06Z" transform="translate(0 -54.95)"/><path class="cls-7" d="M317.18,203.25a6.51,6.51,0,0,1-1.24-.18.2.2,0,0,1-.16-.25h0a.24.24,0,0,1,.28-.16,6.36,6.36,0,0,0,5.35-1.25.22.22,0,0,1,.31,0h0a.23.23,0,0,1,0,.31h0A6.69,6.69,0,0,1,317.18,203.25Z" transform="translate(0 -54.95)"/><path class="cls-7" d="M314.5,180.22c2.8-3.85,10.41-4.9,14.87-3.84,15.8,3.77,8.55,16.9,17.7,24.28-2.66,4.77-5.22,3.76-8.32,5.91-1.81,1.26-6.61,5.19-8.78,5,.11-4.47,2.07-9.61,1.16-14a25.32,25.32,0,0,0-5.59-11.84C322.63,182.53,318.7,180,314.5,180.22Z" transform="translate(0 -54.95)"/><path class="cls-15" d="M314.5,180.22c2.8-3.85,10.41-4.9,14.87-3.84,15.8,3.77,8.55,16.9,17.7,24.28-2.66,4.77-5.22,3.76-8.32,5.91-1.81,1.26-6.61,5.19-8.78,5,.11-4.47,2.07-9.61,1.16-14a25.32,25.32,0,0,0-5.59-11.84C322.63,182.53,318.7,180,314.5,180.22Z" transform="translate(0 -54.95)"/><path class="cls-7" d="M314.5,180.22c2.8-3.85,10.41-4.9,14.87-3.84,15.8,3.77,8.55,16.9,17.7,24.28-2.66,4.77-5.22,3.76-8.32,5.91-1.81,1.26-6.61,5.19-8.78,5,.11-4.47,2.07-9.61,1.16-14a25.32,25.32,0,0,0-5.59-11.84C322.63,182.53,318.7,180,314.5,180.22Z" transform="translate(0 -54.95)"/><path class="cls-14" d="M314.5,180.22c2.8-3.85,10.41-4.9,14.87-3.84,15.8,3.77,8.55,16.9,17.7,24.28-2.66,4.77-5.22,3.76-8.32,5.91-1.81,1.26-6.61,5.19-8.78,5,.11-4.47,2.07-9.61,1.16-14a25.32,25.32,0,0,0-5.59-11.84C322.63,182.53,318.7,180,314.5,180.22Z" transform="translate(0 -54.95)"/><path class="cls-13" d="M335.77,201.54a6.21,6.21,0,0,1-4.18,2.84c-2.13.3-2.75-2.18-1.76-4.46.92-2,3.05-4.68,5-3.92S337,199.59,335.77,201.54Z" transform="translate(0 -54.95)"/><path class="cls-7" d="M324.19,191.62a.35.35,0,0,1-.23-.23,3.28,3.28,0,0,0-2.31-2.07.4.4,0,0,1-.34-.45.09.09,0,0,1,0-.05.47.47,0,0,1,.54-.36,4.05,4.05,0,0,1,2.94,2.59.45.45,0,0,1-.27.57A.45.45,0,0,1,324.19,191.62Z" transform="translate(0 -54.95)"/><path class="cls-7" d="M311.5,188.38a.41.41,0,0,1-.4-.43.41.41,0,0,1,.18-.32,4.68,4.68,0,0,1,4-1.14.43.43,0,0,1,.3.51v0a.49.49,0,0,1-.57.31,3.73,3.73,0,0,0-3.14.93A.48.48,0,0,1,311.5,188.38Z" transform="translate(0 -54.95)"/><path class="cls-7" d="M320.51,193.11l-1.6-.89S319.41,193.79,320.51,193.11Z" transform="translate(0 -54.95)"/></g><path class="cls-7" d="M315.86,179.84a8.43,8.43,0,0,0-1.6,2.52,3.39,3.39,0,0,0,.16,2.89,4.23,4.23,0,0,0,2.06,1.58,12,12,0,0,0,2.55.79,3.1,3.1,0,0,1-1-3.23,4,4,0,0,0,1.88,2.75c.9.53,1.91.82,2.84,1.29,2.93,1.47,8.39,9.17,4.35,25.18,3.57-1.32,8.58-13.89,7.75-17.61s-1-13.28-10.51-16.62C321.77,178.49,318.47,179.1,315.86,179.84Z" transform="translate(0 -54.95)"/><polygon class="cls-13" points="269.67 347.43 261.08 348.26 255.99 324.06 266.12 322.89 269.67 347.43"/><path class="cls-7" d="M257.53,401.21a4.57,4.57,0,0,1,3-1.36l9.21-.64a.81.81,0,0,1,.9.67l1.78,8.55a1.82,1.82,0,0,1-1.38,2.16H271c-3.48.9-5.67.17-11,.54-3.28.23-10.25,1.53-14.72.79s-3.9-5.17-2-5.26C250.14,406.44,255.76,403,257.53,401.21Z" transform="translate(0 -54.95)"/><g class="cls-15"><polygon points="255.99 324.07 258.95 338.14 268.06 336.24 266.13 322.89 255.99 324.07"/></g><path class="cls-11" d="M309.83,328.84c-.34,0-.69,0-1.05,0a14.72,14.72,0,0,1-1.75-.13l-46-2.46c7.43,6.81,8.65,61.38,8.65,61.38l-2.2.47-10,2.13h0l-1.83.39s-4.17-17.87-9-38.37c-2.44-10.38-5.6-21.11-7-31.41a71,71,0,0,1-.66-8.26c0-.85,0-1.69,0-2.53a2.26,2.26,0,0,1,0-.26c0-.36,0-.7.08-1a9,9,0,0,1,2-4.52l.34-.39a4.17,4.17,0,0,1,.36-.37,10.28,10.28,0,0,1,.76-.71c.28-.23.56-.46.86-.68l.77-.53c.32-.2.64-.39,1-.58a5.12,5.12,0,0,1,.52-.27c.52-.28,1.06-.54,1.63-.78l.49-.21.67-.25c.2-.09.4-.16.6-.23.61-.22,1.24-.43,1.89-.6l.33-.1.09,0c17.45-4.94,47.13-1.13,47.13-1.13s7.84-5.8,16.17-6.9l1.18.13,3.71.41a.9.9,0,0,1,.16,0C332,312.45,324.39,328.68,309.83,328.84Z" transform="translate(0 -54.95)"/><g class="cls-14"><path d="M309.83,328.84c-.34,0-.69,0-1.05,0a14.72,14.72,0,0,1-1.75-.13l-46-2.46c7.43,6.81,8.65,61.38,8.65,61.38l-2.2.47-10,2.13h0l-1.83.39s-4.17-17.87-9-38.37c-2.44-10.38-5.6-21.11-7-31.41a71,71,0,0,1-.66-8.26c0-.85,0-1.69,0-2.53a2.26,2.26,0,0,1,0-.26c0-.36,0-.7.08-1a9,9,0,0,1,2-4.52l.34-.39a4.17,4.17,0,0,1,.36-.37,10.28,10.28,0,0,1,.76-.71c.28-.23.56-.46.86-.68l.77-.53c.32-.2.64-.39,1-.58a5.12,5.12,0,0,1,.52-.27c.52-.28,1.06-.54,1.63-.78l.49-.21.67-.25c.2-.09.4-.16.6-.23.61-.22,1.24-.43,1.89-.6l.33-.1.09,0c17.45-4.94,47.13-1.13,47.13-1.13s7.84-5.8,16.17-6.9l1.18.13,3.71.41a.9.9,0,0,1,.16,0C332,312.45,324.39,328.68,309.83,328.84Z" transform="translate(0 -54.95)"/></g><polygon class="cls-13" points="212.8 306.34 210.34 310.1 204.86 318.51 195.69 319.47 202.64 304.87 207.36 294.93 212.8 306.34"/><path class="cls-7" d="M198,368.13l7.59,4.74a.8.8,0,0,1,.35,1l-3.72,8.68a1.77,1.77,0,0,1-2.38.78l-.05,0c-3.54-2.15-5.13-3.36-9.62-6L179,370.85c-3.82-2.24-1.76-6.1.05-5.51,8,2.66,13.43,3,17,2.44A2.87,2.87,0,0,1,198,368.13Z" transform="translate(0 -54.95)"/><g class="cls-15"><polygon points="212.8 306.34 210.35 310.1 210.34 310.1 202.64 304.87 207.36 294.93 212.8 306.34"/></g><path class="cls-11" d="M312.79,329.68a21.38,21.38,0,0,1-3-.58c-.34-.08-.69-.18-1.05-.29-8.44-2.43-20.59-9.08-31.9-15.63-10.42-6-20.09-12-25.45-14.44l-.09,0-.33.1c-.65.18-1.28.39-1.89.61a4.84,4.84,0,0,0-.6.22l-.67.25-.49.21c-.57.24-1.11.51-1.63.78-.18.08-.35.18-.52.27-.34.19-.66.38-1,.58l-.77.54c-.3.22-.58.44-.86.67a10.28,10.28,0,0,0-.76.71c-.13.12-.25.25-.36.37l-.34.39a9,9,0,0,0-2,4.52c0,.34-.07.69-.08,1,0,.84,0,1.68,0,2.53a71.89,71.89,0,0,0,.63,8.31l0,.21c-12.56,22.65-25.62,43.19-25.62,43.19l-2.22-1.53-8-5.48-1.38-1s13.94-32.66,23.53-61.76a26.55,26.55,0,0,1,25.44-18.28c23.67.21,54.75,13.29,54.75,13.29l8.53.91,1.18.13,3.71.41a.9.9,0,0,1,.16,0c2,.22,4.24.38,6.41.54a11.6,11.6,0,0,1,10.36,8.53C342.84,323.14,327.71,331.51,312.79,329.68Z" transform="translate(0 -54.95)"/><path class="cls-11" d="M312.79,329.68a21.38,21.38,0,0,1-3-.58c-.34-.08-.69-.18-1.05-.29-8.44-2.43-20.59-9.08-31.9-15.63-10.42-6-20.09-12-25.45-14.44l-.09,0-.33.1c-.65.18-1.28.39-1.89.61a4.84,4.84,0,0,0-.6.22l-.67.25-.49.21c-.57.24-1.11.51-1.63.78-.18.08-.35.18-.52.27-.34.19-.66.38-1,.58l-.77.54c-.3.22-.58.44-.86.67a10.28,10.28,0,0,0-.76.71c-.13.12-.25.25-.36.37l-.34.39a9,9,0,0,0-2,4.52c0,.34-.07.69-.08,1,0,.84,0,1.68,0,2.53a71.89,71.89,0,0,0,.63,8.31l0,.21c-12.56,22.65-25.62,43.19-25.62,43.19l-2.22-1.53-8-5.48-1.38-1s13.94-32.66,23.53-61.76a26.55,26.55,0,0,1,25.44-18.28c23.67.21,54.75,13.29,54.75,13.29l8.53.91,1.18.13,3.71.41a.9.9,0,0,1,.16,0c2,.22,4.24.38,6.41.54a11.6,11.6,0,0,1,10.36,8.53C342.84,323.14,327.71,331.51,312.79,329.68Z" transform="translate(0 -54.95)"/><path class="cls-11" d="M251.34,298.49h0l-.33.09Z" transform="translate(0 -54.95)"/><path class="cls-11" d="M332.23,222.12s-6.51,5.78-8.45,19.73c-3.1,22.49-1.48,65.85-.32,90.62a5.37,5.37,0,0,0,7.26,4.76c7.73-2.88,20.36-.62,26-5.51.41-7.46-12.57-45.58-11.31-65.31s3.72-36.92,1.17-40.64S332.23,222.12,332.23,222.12Z" transform="translate(0 -54.95)"/><path class="cls-9" d="M332.23,222.12s-6.51,5.78-8.45,19.73c-3.1,22.49-1.31,65.85-.14,90.62a5.36,5.36,0,0,0,7.25,4.76c7.73-2.88,20.19-.62,25.86-5.51.41-7.46-12.57-45.58-11.31-65.31s3.72-36.92,1.17-40.64S332.23,222.12,332.23,222.12Z" transform="translate(0 -54.95)"/><path class="cls-7" d="M331.94,251.72a.33.33,0,0,1-.31-.35.33.33,0,0,1,.18-.28l1.39-.68a7.09,7.09,0,0,0,4-7l-1.13-13.53a4.5,4.5,0,0,0-8.65-1.33l-5.16,12.54a7.11,7.11,0,0,0,1.67,7.89l1.13,1.07a.34.34,0,0,1,0,.47.33.33,0,0,1-.47,0l-1.13-1.07a7.76,7.76,0,0,1-1.8-8.63l5.2-12.51a5.17,5.17,0,0,1,9.93,1.54l1.12,13.51A7.75,7.75,0,0,1,333.5,251l-1.39.67A.25.25,0,0,1,331.94,251.72Z" transform="translate(0 -54.95)"/><path class="cls-7" d="M336.6,232.84a.34.34,0,0,1-.32-.3A5.35,5.35,0,0,0,326.4,231a.34.34,0,1,1-.63-.23s0,0,0,0a6,6,0,0,1,11.15,1.73.33.33,0,0,1-.29.36Z" transform="translate(0 -54.95)"/><path class="cls-7" d="M332.29,225.8h0a.32.32,0,0,1-.3-.35h0c.14-1.63,0-4.61-1.53-5.42a.33.33,0,1,1,.32-.58h0c2.2,1.2,1.88,5.56,1.83,6.06A.32.32,0,0,1,332.29,225.8Z" transform="translate(0 -54.95)"/><path class="cls-7" d="M325.56,250.39c-.1.63-.51,1.08-.92,1s-.66-.61-.56-1.23.5-1.08.91-1S325.65,249.78,325.56,250.39Z" transform="translate(0 -54.95)"/><path class="cls-7" d="M332.69,251.51c-.09.61-.5,1.06-.91,1s-.66-.62-.56-1.24.5-1.06.91-1S332.79,250.88,332.69,251.51Z" transform="translate(0 -54.95)"/><path class="cls-7" d="M314.66,238.54c-.34,1.39-1.36,2.34-2.24,2.12s-1.38-1.5-1-2.93,1.36-2.34,2.24-2.11S315,237.15,314.66,238.54Z" transform="translate(0 -54.95)"/><path class="cls-7" d="M311.82,238.06h-.07a.33.33,0,0,1-.31-.35c.35-5.6,3.68-14.87,7.33-17.9a.32.32,0,0,1,.47,0,.33.33,0,0,1,0,.47.24.24,0,0,1-.08.06c-3.52,3-6.76,11.91-7.09,17.42A.32.32,0,0,1,311.82,238.06Z" transform="translate(0 -54.95)"/><path class="cls-6" d="M315.65,238.68c-.23,1.19-1.11,2-2,1.87a2,2,0,0,1-1.18-2.45c.22-1.2,1.11-2,2-1.87A2,2,0,0,1,315.65,238.68Z" transform="translate(0 -54.95)"/><path class="cls-7" d="M315.72,238.79c-.31,1.47-1.12,2.55-1.79,2.41s-1-1.46-.64-2.94,1.12-2.55,1.79-2.4S316,237.31,315.72,238.79Z" transform="translate(0 -54.95)"/><path class="cls-7" d="M302.22,270.77l-20.86.38a1.63,1.63,0,0,1-1.62-1.41l-4-31.92a1.28,1.28,0,0,1,1.27-1.46L297.9,236a1.63,1.63,0,0,1,1.62,1.41l4,31.92A1.28,1.28,0,0,1,302.22,270.77Z" transform="translate(0 -54.95)"/><path class="cls-7" d="M290.28,238.65l-5,.09a2,2,0,0,1-2-1.76L282.9,234l8.6-.16.36,2.94A1.59,1.59,0,0,1,290.28,238.65Z" transform="translate(0 -54.95)"/><path class="cls-9" d="M290.28,238.65l-5,.09a2,2,0,0,1-2-1.76L282.9,234l8.6-.16.36,2.94A1.59,1.59,0,0,1,290.28,238.65Z" transform="translate(0 -54.95)"/><path class="cls-6" d="M298.86,236.05l-1,0a1.65,1.65,0,0,1,1.62,1.41l4,31.93a1.28,1.28,0,0,1-1.27,1.46l1,0a1.27,1.27,0,0,0,1.26-1.46l-4-31.93A1.65,1.65,0,0,0,298.86,236.05Z" transform="translate(0 -54.95)"/><path class="cls-15" d="M339.41,230.46c.31.68-6.45,27.62-6.45,27.62l5.15,2.27Z" transform="translate(0 -54.95)"/><path class="cls-11" d="M350.5,247.86c-1.17,10.57-2.25,14.7-3,15.85-3.88,14.33-16.22,7.12-18,6.53-3.08-1-6.26-3.1-9.2-4.46-5.72-2.59-11.12-4.64-16.47-7.93l2.74-5.91s20.53,4.46,23.22,5c1.17.26,7,1.22,6.87-1.91.6-1.06,1.13-19.17,2.81-26.4a6.14,6.14,0,0,1,1.05-2.24l.17-.22c1.12-1.52,1.86-1.51,3.91-1.43,4.47.18,6.58,3.63,7.05,8.08h0C352.09,237,351,243.74,350.5,247.86Z" transform="translate(0 -54.95)"/><g class="cls-12"><path class="cls-6" d="M350.5,247.86c-1.17,10.57-2.25,14.7-3,15.85-3.88,14.33-16.22,7.12-18,6.53-3.08-1-6.26-3.1-9.2-4.46-5.72-2.59-11.12-4.64-16.47-7.93l2.74-5.91s20.53,4.46,23.22,5c1.17.26,7,1.22,6.87-1.91.6-1.06,1.13-19.17,2.81-26.4a6.14,6.14,0,0,1,1.05-2.24l.17-.22c1.12-1.52,1.86-1.51,3.91-1.43,4.47.18,6.58,3.63,7.05,8.08h0C352.09,237,351,243.74,350.5,247.86Z" transform="translate(0 -54.95)"/></g><path class="cls-13" d="M306.81,252.64h0a5.39,5.39,0,0,1-4.44,6.5,23,23,0,0,1-4.94.19l-.38-10.15,7.77,1.52A2.53,2.53,0,0,1,306.81,252.64Z" transform="translate(0 -54.95)"/><path class="cls-13" d="M297.05,249.18l.41,10.18-3.77.22a4.7,4.7,0,0,1-4.87-3.61l-.05-.24a4.7,4.7,0,0,1,3.72-5.7Z" transform="translate(0 -54.95)"/></g><g id="Desk"><polygon class="cls-7" points="205.19 188.37 202.48 215.85 206.91 215.85 205.19 188.37"/><polygon class="cls-11" points="238.26 215.69 206.45 215.82 204.9 188.37 236.7 188.24 238.26 215.69"/><polygon class="cls-17" points="238.26 215.69 206.45 215.82 204.9 188.37 236.7 188.24 238.26 215.69"/><polygon class="cls-7" points="236.7 188.24 204.9 188.37 204.6 183.24 236.41 183.1 236.7 188.24"/><path class="cls-11" d="M209.36,236.47a.9.9,0,0,0-.89-.84.79.79,0,0,0-.8.85c0,.3.17,3.09.19,3.39a.91.91,0,0,0,.89.85.8.8,0,0,0,.8-.85C209.54,239.63,209.38,236.71,209.36,236.47Z" transform="translate(0 -54.95)"/><path class="cls-11" d="M215.48,236.45a.9.9,0,0,0-.89-.85.8.8,0,0,0-.8.86c0,.3.17,3.09.19,3.39a.91.91,0,0,0,.9.84.8.8,0,0,0,.8-.85C215.66,239.6,215.5,236.69,215.48,236.45Z" transform="translate(0 -54.95)"/><path class="cls-11" d="M221.61,236.42a.91.91,0,0,0-.9-.84.79.79,0,0,0-.8.85c0,.3.18,3.09.19,3.39a.91.91,0,0,0,.9.85.81.81,0,0,0,.8-.86C221.78,239.57,221.62,236.66,221.61,236.42Z" transform="translate(0 -54.95)"/><path class="cls-11" d="M227.73,236.4a.91.91,0,0,0-.9-.85.81.81,0,0,0-.8.85c0,.3.18,3.1.2,3.4a.9.9,0,0,0,.89.84.79.79,0,0,0,.8-.85C227.91,239.55,227.74,236.64,227.73,236.4Z" transform="translate(0 -54.95)"/><path class="cls-11" d="M233.85,236.37a.9.9,0,0,0-.89-.84.79.79,0,0,0-.8.85c0,.3.17,3.09.19,3.39a.88.88,0,0,0,.89.84.79.79,0,0,0,.8-.85C234,239.52,233.86,236.61,233.85,236.37Z" transform="translate(0 -54.95)"/><g class="cls-12"><path class="cls-6" d="M209.36,236.47a.9.9,0,0,0-.89-.84.79.79,0,0,0-.8.85c0,.3.17,3.09.19,3.39a.91.91,0,0,0,.89.85.8.8,0,0,0,.8-.85C209.54,239.63,209.38,236.71,209.36,236.47Z" transform="translate(0 -54.95)"/><path class="cls-6" d="M215.48,236.45a.9.9,0,0,0-.89-.85.8.8,0,0,0-.8.86c0,.3.17,3.09.19,3.39a.91.91,0,0,0,.9.84.8.8,0,0,0,.8-.85C215.66,239.6,215.5,236.69,215.48,236.45Z" transform="translate(0 -54.95)"/><path class="cls-6" d="M221.61,236.42a.91.91,0,0,0-.9-.84.79.79,0,0,0-.8.85c0,.3.18,3.09.19,3.39a.91.91,0,0,0,.9.85.81.81,0,0,0,.8-.86C221.78,239.57,221.62,236.66,221.61,236.42Z" transform="translate(0 -54.95)"/><path class="cls-6" d="M227.73,236.4a.91.91,0,0,0-.9-.85.81.81,0,0,0-.8.85c0,.3.18,3.1.2,3.4a.9.9,0,0,0,.89.84.79.79,0,0,0,.8-.85C227.91,239.55,227.74,236.64,227.73,236.4Z" transform="translate(0 -54.95)"/><path class="cls-6" d="M233.85,236.37a.9.9,0,0,0-.89-.84.79.79,0,0,0-.8.85c0,.3.17,3.09.19,3.39a.88.88,0,0,0,.89.84.79.79,0,0,0,.8-.85C234,239.52,233.86,236.61,233.85,236.37Z" transform="translate(0 -54.95)"/></g><polygon class="cls-11" points="239.15 214.92 207.34 215.05 204.9 188.37 236.7 188.24 239.15 214.92"/><polygon class="cls-18" points="239.15 214.92 207.34 215.05 204.9 188.37 236.7 188.24 239.15 214.92"/><polygon class="cls-11" points="229.97 194.82 214.22 194.89 213.79 190.19 229.54 190.13 229.97 194.82"/><polygon class="cls-17" points="229.97 194.82 214.22 194.89 213.79 190.19 229.54 190.13 229.97 194.82"/><polygon class="cls-6" points="212.13 200.97 207.92 200.98 207.53 196.78 211.74 196.76 212.13 200.97"/><polygon class="cls-6" points="218.09 200.94 213.89 200.96 213.5 196.75 217.71 196.74 218.09 200.94"/><polygon class="cls-11" points="212.64 206.64 208.44 206.66 208.05 202.45 212.26 202.43 212.64 206.64"/><polygon class="cls-11" points="213.16 212.31 208.96 212.33 208.57 208.12 212.78 208.1 213.16 212.31"/><polygon class="cls-11" points="218.61 206.61 214.41 206.63 214.02 202.43 218.22 202.41 218.61 206.61"/><polygon class="cls-19" points="218.61 206.61 214.41 206.63 214.02 202.43 218.22 202.41 218.61 206.61"/><polygon class="cls-11" points="224.58 206.59 220.37 206.61 219.99 202.4 224.19 202.38 224.58 206.59"/><polygon class="cls-19" points="224.58 206.59 220.37 206.61 219.99 202.4 224.19 202.38 224.58 206.59"/><polygon class="cls-11" points="230.54 206.56 226.34 206.58 225.95 202.38 230.16 202.36 230.54 206.56"/><polygon class="cls-19" points="230.54 206.56 226.34 206.58 225.95 202.38 230.16 202.36 230.54 206.56"/><polygon class="cls-11" points="236.51 206.54 232.3 206.56 231.92 202.35 236.12 202.33 236.51 206.54"/><polygon class="cls-19" points="236.51 206.54 232.3 206.56 231.92 202.35 236.12 202.33 236.51 206.54"/><polygon class="cls-11" points="219.13 212.29 214.92 212.3 214.54 208.1 218.75 208.08 219.13 212.29"/><polygon class="cls-19" points="219.13 212.29 214.92 212.3 214.54 208.1 218.75 208.08 219.13 212.29"/><polygon class="cls-11" points="225.09 212.26 220.89 212.28 220.5 208.07 224.71 208.06 225.09 212.26"/><polygon class="cls-19" points="225.09 212.26 220.89 212.28 220.5 208.07 224.71 208.06 225.09 212.26"/><polygon class="cls-11" points="231.06 212.24 226.86 212.25 226.47 208.05 230.68 208.03 231.06 212.24"/><polygon class="cls-19" points="231.06 212.24 226.86 212.25 226.47 208.05 230.68 208.03 231.06 212.24"/><polygon class="cls-20" points="224.06 200.91 219.85 200.93 219.47 196.73 223.67 196.71 224.06 200.91"/><polygon class="cls-11" points="224.06 200.91 219.85 200.93 219.47 196.73 223.67 196.71 224.06 200.91"/><polygon class="cls-19" points="224.06 200.91 219.85 200.93 219.47 196.73 223.67 196.71 224.06 200.91"/><polygon class="cls-20" points="230.02 200.89 225.82 200.91 225.43 196.7 229.64 196.69 230.02 200.89"/><polygon class="cls-11" points="230.02 200.89 225.82 200.91 225.43 196.7 229.64 196.69 230.02 200.89"/><polygon class="cls-19" points="230.02 200.89 225.82 200.91 225.43 196.7 229.64 196.69 230.02 200.89"/><polygon class="cls-20" points="235.99 200.87 231.78 200.88 231.4 196.68 235.6 196.66 235.99 200.87"/><polygon class="cls-11" points="235.99 200.87 231.78 200.88 231.4 196.68 235.6 196.66 235.99 200.87"/><polygon class="cls-19" points="235.99 200.87 231.78 200.88 231.4 196.68 235.6 196.66 235.99 200.87"/><polygon class="cls-6" points="237.03 212.21 232.82 212.23 232.44 208.02 236.64 208 237.03 212.21"/><polygon class="cls-7" points="163.38 223.79 163.38 229.89 127.54 229.89 123.67 357.13 120.38 357.13 120.38 223.79 163.38 223.79"/><polygon class="cls-9" points="163.38 223.79 163.38 229.89 127.54 229.89 123.67 357.13 120.38 357.13 120.38 223.79 163.38 223.79"/><polygon class="cls-21" points="163.38 223.79 163.38 229.89 127.54 229.89 123.67 357.13 120.38 357.13 120.38 223.79 163.38 223.79"/><polygon class="cls-7" points="120.38 357.13 117.27 357.13 116.27 223.8 120.38 223.8 120.38 357.13"/><g class="cls-22"><polygon class="cls-6" points="120.38 357.13 117.27 357.13 116.27 223.8 120.38 223.8 120.38 357.13"/></g><polygon class="cls-7" points="173.58 223.79 173.58 357.13 170.32 357.13 167.42 229.89 163.58 229.89 163.58 223.79 173.58 223.79"/><polygon class="cls-7" points="170.69 357.13 167.58 357.13 163.58 223.8 167.69 223.8 170.69 357.13"/><g class="cls-22"><polygon class="cls-6" points="170.69 357.13 167.58 357.13 163.58 223.8 167.69 223.8 170.69 357.13"/></g><polygon class="cls-9" points="173.58 223.79 173.58 357.13 170.32 357.13 167.42 229.89 163.58 229.89 163.58 223.79 173.58 223.79"/><polygon class="cls-7" points="369.15 357.13 366.05 357.13 362.05 223.8 366.15 223.8 369.15 357.13"/><polyline class="cls-8" points="362.05 223.8 366.15 223.8 369.15 357.13 366.05 357.13"/><rect class="cls-7" x="120.4" y="223.8" width="195.47" height="10.11"/><rect class="cls-23" x="120.4" y="223.8" width="195.47" height="10.11"/><polygon class="cls-7" points="319.05 223.8 319.05 357.13 322.33 357.13 326.2 229.89 365.89 229.89 368.79 357.13 372.05 357.13 372.05 223.8 319.05 223.8"/><polygon class="cls-9" points="319.05 223.8 319.05 357.13 322.33 357.13 326.2 229.89 365.89 229.89 368.79 357.13 372.05 357.13 372.05 223.8 319.05 223.8"/><polygon class="cls-7" points="319.05 357.13 315.94 357.13 314.94 223.8 319.05 223.8 319.05 357.13"/><polygon class="cls-8" points="319.05 357.13 315.94 357.13 314.94 223.8 319.05 223.8 319.05 357.13"/><rect class="cls-7" x="110.83" y="216.13" width="205.65" height="7.67"/><rect class="cls-17" x="110.83" y="216.13" width="205.65" height="7.67"/><rect class="cls-7" x="311.71" y="216.13" width="65.78" height="7.67"/><rect class="cls-9" x="311.71" y="216.13" width="65.78" height="7.67"/></g><g id="Prescription"><path class="cls-11" d="M195.15,254.8H75.09C91.9,194,58.28,133.23,75.09,72.44H195.15C178.34,133.23,212,194,195.15,254.8Z" transform="translate(0 -54.95)"/><path class="cls-9" d="M195.15,254.8H75.09C91.9,194,58.28,133.23,75.09,72.44H195.15C178.34,133.23,212,194,195.15,254.8Z" transform="translate(0 -54.95)"/><path class="cls-7" d="M181.19,110.62H126.94a.53.53,0,0,1-.53-.53.53.53,0,0,1,.53-.53h54.25a.53.53,0,0,1,.53.53A.53.53,0,0,1,181.19,110.62Z" transform="translate(0 -54.95)"/><path class="cls-7" d="M181.45,121.4H127.2a.56.56,0,0,1-.55-.53.5.5,0,0,1,.5-.53H181.4a.57.57,0,0,1,.56.53A.51.51,0,0,1,181.45,121.4Z" transform="translate(0 -54.95)"/><path class="cls-7" d="M182.15,132.23h-102a.6.6,0,0,1-.58-.53.48.48,0,0,1,.48-.53h102a.58.58,0,0,1,.57.53A.48.48,0,0,1,182.15,132.23Z" transform="translate(0 -54.95)"/><path class="cls-7" d="M190.63,224.67H88.6a.5.5,0,0,1-.51-.53.56.56,0,0,1,.56-.52h102a.49.49,0,0,1,.5.52A.55.55,0,0,1,190.63,224.67Z" transform="translate(0 -54.95)"/><path class="cls-7" d="M121,243.2H86.56a.43.43,0,0,1-.43-.53.66.66,0,0,1,.62-.53h34.41a.43.43,0,0,1,.43.53A.66.66,0,0,1,121,243.2Z" transform="translate(0 -54.95)"/><path class="cls-7" d="M188.94,243.2H154.53a.43.43,0,0,1-.43-.53.65.65,0,0,1,.62-.53h34.41a.43.43,0,0,1,.43.53A.66.66,0,0,1,188.94,243.2Z" transform="translate(0 -54.95)"/><path class="cls-11" d="M107.21,97.12c0,4.53-3.41,7.35-8.84,7.35h-4.1v5.61H89.56V89.73h8.81C103.8,89.73,107.21,92.55,107.21,97.12Zm-4.77,0c0-2.24-1.46-3.55-4.33-3.55H94.27v7.06h3.84C101,100.63,102.44,99.33,102.44,97.12Z" transform="translate(0 -54.95)"/><path class="cls-11" d="M110.44,121.71l-4.91-7.06-4.83,7.06H95.29l7.53-10.35-7.15-10H101l4.68,6.6,4.6-6.6h5.09l-7.1,9.83,7.59,10.52Z" transform="translate(0 -54.95)"/><path class="cls-7" d="M86.58,139c0,1.12-.84,1.82-2.19,1.82h-1v1.39H82.21v-5h2.18C85.74,137.12,86.58,137.82,86.58,139Zm-1.18,0c0-.55-.36-.88-1.07-.88h-1v1.75h1C85,139.82,85.4,139.5,85.4,139Z" transform="translate(0 -54.95)"/><path class="cls-7" d="M89.73,138.23v1l-.26,0a1,1,0,0,0-1,1.08v1.83H87.32v-3.87h1.07v.51A1.57,1.57,0,0,1,89.73,138.23Z" transform="translate(0 -54.95)"/><path class="cls-7" d="M94.12,140.54H91.2a1,1,0,0,0,1.1.78,1.31,1.31,0,0,0,1-.38l.6.65a2.25,2.25,0,0,1-3.8-1.37,2,2,0,0,1,2.06-2,1.92,1.92,0,0,1,2,2C94.15,140.32,94.13,140.45,94.12,140.54Zm-2.94-.66h1.91a1,1,0,0,0-1.91,0Z" transform="translate(0 -54.95)"/><path class="cls-7" d="M94.51,141.8l.38-.81a2.56,2.56,0,0,0,1.34.38c.52,0,.72-.14.72-.36,0-.63-2.34,0-2.34-1.53,0-.73.66-1.25,1.79-1.25a3.15,3.15,0,0,1,1.49.34l-.38.8a2.17,2.17,0,0,0-1.11-.29c-.5,0-.72.16-.72.36,0,.66,2.34,0,2.34,1.55,0,.71-.67,1.23-1.83,1.23A3.32,3.32,0,0,1,94.51,141.8Z" transform="translate(0 -54.95)"/><path class="cls-7" d="M98.42,140.22a2,2,0,0,1,2.15-2,1.77,1.77,0,0,1,1.74,1l-.87.46a1,1,0,0,0-.87-.53,1.07,1.07,0,0,0,0,2.14.94.94,0,0,0,.87-.53l.87.48a1.8,1.8,0,0,1-1.74,1A2,2,0,0,1,98.42,140.22Z" transform="translate(0 -54.95)"/><path class="cls-7" d="M105.35,138.23v1l-.25,0a1,1,0,0,0-1,1.08v1.83H103v-3.87H104v.51A1.56,1.56,0,0,1,105.35,138.23Z" transform="translate(0 -54.95)"/><path class="cls-7" d="M105.88,137.12a.64.64,0,0,1,.7-.62.63.63,0,0,1,.7.6.7.7,0,0,1-1.4,0Zm.14,1.17h1.12v3.87H106Z" transform="translate(0 -54.95)"/><path class="cls-7" d="M112.4,140.22a1.89,1.89,0,0,1-1.93,2,1.54,1.54,0,0,1-1.17-.47v1.8h-1.12v-5.26h1.07v.44a1.53,1.53,0,0,1,1.22-.5A1.89,1.89,0,0,1,112.4,140.22Zm-1.14,0a1,1,0,1,0-1,1.07A1,1,0,0,0,111.26,140.22Z" transform="translate(0 -54.95)"/><path class="cls-7" d="M115.64,142a1.6,1.6,0,0,1-.92.25,1.27,1.27,0,0,1-1.44-1.39v-1.59h-.6v-.87h.6v-.94h1.12v.94h1v.87h-1v1.57a.45.45,0,0,0,.48.51.75.75,0,0,0,.45-.14Z" transform="translate(0 -54.95)"/><path class="cls-7" d="M116.13,137.12a.64.64,0,0,1,.7-.62.63.63,0,0,1,.69.6.7.7,0,0,1-1.39,0Zm.13,1.17h1.13v3.87h-1.13Z" transform="translate(0 -54.95)"/><path class="cls-7" d="M118.14,140.22a2.13,2.13,0,1,1,2.13,2A2,2,0,0,1,118.14,140.22Zm3.11,0a1,1,0,1,0-1,1.07A1,1,0,0,0,121.25,140.22Z" transform="translate(0 -54.95)"/><path class="cls-7" d="M127.09,139.94v2.22H126v-2c0-.62-.29-.91-.79-.91s-.92.33-.92,1v1.92h-1.13v-3.87h1.08v.45a1.69,1.69,0,0,1,1.28-.51A1.51,1.51,0,0,1,127.09,139.94Z" transform="translate(0 -54.95)"/><path class="cls-7" d="M127.83,138.93a.66.66,0,0,1,.69-.69.67.67,0,0,1,.7.69.68.68,0,0,1-.7.7A.68.68,0,0,1,127.83,138.93Zm0,2.58a.66.66,0,0,1,.69-.69.67.67,0,0,1,.7.69.69.69,0,0,1-.7.71A.68.68,0,0,1,127.83,141.51Z" transform="translate(0 -54.95)"/></g><g id="Drugs"><rect x="184.6" y="133.34" width="30.88" height="76.21" rx="6.11" ry="6.11" transform="translate(61.44 -107.56) rotate(17.66)"/><path class="cls-18" d="M224.74,144a5.79,5.79,0,0,1-.28,1.67l-19.41,61a6.37,6.37,0,0,1-.23.61,6.1,6.1,0,0,1-7.44,3.36l-17.79-5.66a6.11,6.11,0,0,1-4-7.53l11.2-35.17L195,136.27a6.11,6.11,0,0,1,7.67-4L220.5,138a5.93,5.93,0,0,1,1.12.49A6.08,6.08,0,0,1,224.74,144Z" transform="translate(0 -54.95)"/><g class="cls-24"><path class="cls-23" d="M181.72,178.11l8.07-25.33,22.85-17.32,9,3a6.08,6.08,0,0,1,3.12,5.52Z" transform="translate(0 -54.95)"/></g><path class="cls-23" d="M193,142.6l2-6.33a6.11,6.11,0,0,1,7.67-4l2.67.85Z" transform="translate(0 -54.95)"/><path class="cls-11" d="M205.27,142.35a2.34,2.34,0,1,1-1.52-2.94A2.33,2.33,0,0,1,205.27,142.35Z" transform="translate(0 -54.95)"/><path class="cls-11" d="M200.81,156.33a2.33,2.33,0,1,1-1.51-2.93A2.33,2.33,0,0,1,200.81,156.33Z" transform="translate(0 -54.95)"/><path class="cls-11" d="M196.36,170.32a2.34,2.34,0,1,1-1.52-2.93A2.33,2.33,0,0,1,196.36,170.32Z" transform="translate(0 -54.95)"/><path class="cls-11" d="M191.91,184.31a2.34,2.34,0,1,1-1.52-2.94A2.33,2.33,0,0,1,191.91,184.31Z" transform="translate(0 -54.95)"/><path class="cls-11" d="M187.46,198.29a2.34,2.34,0,1,1-1.52-2.93A2.35,2.35,0,0,1,187.46,198.29Z" transform="translate(0 -54.95)"/><path class="cls-11" d="M216.51,145.93a2.34,2.34,0,0,1-4.45-1.42,2.34,2.34,0,1,1,4.45,1.42Z" transform="translate(0 -54.95)"/><path class="cls-11" d="M212.06,159.91a2.33,2.33,0,1,1-1.52-2.93A2.34,2.34,0,0,1,212.06,159.91Z" transform="translate(0 -54.95)"/><path class="cls-11" d="M207.61,173.9a2.34,2.34,0,1,1-1.52-2.93A2.35,2.35,0,0,1,207.61,173.9Z" transform="translate(0 -54.95)"/><path class="cls-11" d="M203.15,187.89a2.34,2.34,0,0,1-4.45-1.42,2.34,2.34,0,1,1,4.45,1.42Z" transform="translate(0 -54.95)"/><path class="cls-11" d="M198.7,201.87a2.33,2.33,0,1,1-1.52-2.93A2.34,2.34,0,0,1,198.7,201.87Z" transform="translate(0 -54.95)"/><g class="cls-25"><path class="cls-6" d="M205.27,142.35a2.34,2.34,0,1,1-1.52-2.94A2.33,2.33,0,0,1,205.27,142.35Z" transform="translate(0 -54.95)"/><path class="cls-6" d="M200.81,156.33a2.33,2.33,0,1,1-1.51-2.93A2.33,2.33,0,0,1,200.81,156.33Z" transform="translate(0 -54.95)"/><path class="cls-6" d="M196.36,170.32a2.34,2.34,0,1,1-1.52-2.93A2.33,2.33,0,0,1,196.36,170.32Z" transform="translate(0 -54.95)"/><path class="cls-6" d="M191.91,184.31a2.34,2.34,0,1,1-1.52-2.94A2.33,2.33,0,0,1,191.91,184.31Z" transform="translate(0 -54.95)"/><path class="cls-6" d="M187.46,198.29a2.34,2.34,0,1,1-1.52-2.93A2.35,2.35,0,0,1,187.46,198.29Z" transform="translate(0 -54.95)"/></g><g class="cls-25"><path class="cls-6" d="M216.51,145.93a2.34,2.34,0,0,1-4.45-1.42,2.34,2.34,0,1,1,4.45,1.42Z" transform="translate(0 -54.95)"/><path class="cls-6" d="M212.06,159.91a2.33,2.33,0,1,1-1.52-2.93A2.34,2.34,0,0,1,212.06,159.91Z" transform="translate(0 -54.95)"/><path class="cls-6" d="M207.61,173.9a2.34,2.34,0,1,1-1.52-2.93A2.35,2.35,0,0,1,207.61,173.9Z" transform="translate(0 -54.95)"/><path class="cls-6" d="M203.15,187.89a2.34,2.34,0,0,1-4.45-1.42,2.34,2.34,0,1,1,4.45,1.42Z" transform="translate(0 -54.95)"/><path class="cls-6" d="M198.7,201.87a2.33,2.33,0,1,1-1.52-2.93A2.34,2.34,0,0,1,198.7,201.87Z" transform="translate(0 -54.95)"/></g><path class="cls-9" d="M186.84,208l-30.72,6.34a5.45,5.45,0,0,1-6.43-4.23l-8.84-42.86a13,13,0,0,1,6.66-14.15,12.89,12.89,0,0,1,3.45-1.24l15.87-3.27a13,13,0,0,1,15.38,10.12l8.85,42.86A5.43,5.43,0,0,1,186.84,208Z" transform="translate(0 -54.95)"/><rect class="cls-11" x="144.09" y="164.6" width="42.24" height="32.48" transform="translate(-33.14 -17.82) rotate(-11.66)"/><rect class="cls-10" x="144.09" y="164.6" width="42.24" height="32.48" transform="translate(-33.14 -17.82) rotate(-11.66)"/><path class="cls-11" d="M146.56,140.21h23a2.83,2.83,0,0,1,2.83,2.83v4.35a0,0,0,0,1,0,0h-28.7a0,0,0,0,1,0,0V143A2.83,2.83,0,0,1,146.56,140.21Z" transform="translate(-25.8 -20.03) rotate(-11.66)"/><path class="cls-9" d="M171.67,148.5a13.16,13.16,0,0,0-4.84.09L151,151.86a12.89,12.89,0,0,0-3.45,1.24l-.68-3.31,24.08-5Z" transform="translate(0 -54.95)"/><path class="cls-8" d="M147.1,155.46a.77.77,0,0,0-1.43-.33,9.85,9.85,0,0,0-1.46,6c.54,3.6,8.22,42.85,9.4,48.86a2.21,2.21,0,0,0,.76,1.26h0a2.17,2.17,0,0,0,1.87.41l1.17-.29-10-51.31S147.23,157.6,147.1,155.46Z" transform="translate(0 -54.95)"/></g></svg>