<svg width="50" height="50" viewBox="0 0 50 50" fill="none" xmlns="http://www.w3.org/2000/svg">
<g clip-path="url(#clip0_253_110)">
<path fill-rule="evenodd" clip-rule="evenodd" d="M25 50C31.6304 50 37.9893 47.3661 42.6777 42.6777C47.3661 37.9893 50 31.6304 50 25C50 18.3696 47.3661 12.0107 42.6777 7.32233C37.9893 2.63392 31.6304 0 25 0C18.3696 0 12.0107 2.63392 7.32233 7.32233C2.63392 12.0107 0 18.3696 0 25C0 31.6304 2.63392 37.9893 7.32233 42.6777C12.0107 47.3661 18.3696 50 25 50V50ZM17.8333 13.4167C17.2409 12.8647 16.4574 12.5642 15.6478 12.5784C14.8382 12.5927 14.0658 12.9207 13.4932 13.4932C12.9207 14.0658 12.5927 14.8382 12.5784 15.6478C12.5642 16.4574 12.8647 17.2409 13.4167 17.8333L32.1667 36.5833C32.7591 37.1353 33.5426 37.4358 34.3522 37.4216C35.1618 37.4073 35.9342 37.0793 36.5068 36.5068C37.0793 35.9342 37.4073 35.1618 37.4216 34.3522C37.4358 33.5426 37.1353 32.7591 36.5833 32.1667L17.8333 13.4167V13.4167Z" fill="black"/>
</g>
<defs>
<clipPath id="clip0_253_110">
<rect width="50" height="50" fill="white"/>
</clipPath>
</defs>
</svg>
