<svg width="32" height="32" viewBox="0 0 32 32" fill="none" xmlns="http://www.w3.org/2000/svg">
<path d="M13.3803 0C11.4872 0.0329021 9.77731 1.19778 9.00379 2.99899L18.2657 5.88527C18.6728 3.37981 17.214 0.95066 14.8663 0.213513C14.4456 0.0819051 14.0045 0.00980062 13.5635 0H13.3803V0ZM8.65096 4.20587C8.23706 6.71832 9.69589 9.15448 12.0504 9.88952C14.4116 10.6246 16.929 9.4205 17.9196 7.08935L8.65096 4.20587ZM26.6658 7.30636C24.9492 7.31336 23.1239 8.16742 21.7465 10.1765L13.2785 22.5603C11.0054 25.8785 11.9961 29.3508 14.2352 30.9889C16.4812 32.634 19.9756 32.445 22.2486 29.1267L30.7099 16.75C32.9829 13.4248 31.9923 9.95953 29.7531 8.31443C28.9118 7.69839 27.9008 7.34136 26.8355 7.30636H26.6658ZM26.5437 8.51744C26.6319 8.51744 26.7201 8.51744 26.8015 8.52444C27.6226 8.55944 28.3961 8.86046 29.0475 9.34349C30.7913 10.6176 31.6666 13.1587 29.7056 16.0219L25.3291 22.4273C22.9 21.7553 19.7788 19.4661 18.3607 17.317L22.7507 10.9046C23.8975 9.23148 25.2613 8.54544 26.5437 8.51744V8.51744ZM4.82067 13.8518C4.16793 13.8588 3.52401 13.9988 2.92555 14.2718C0.678946 15.2869 -0.490155 17.877 0.195157 20.3132L9.06486 16.3159C8.17599 14.7688 6.56109 13.8308 4.82067 13.8518V13.8518ZM9.54661 17.464L0.678268 21.4683C1.93015 23.6664 4.56623 24.5485 6.82572 23.5334C9.07843 22.5113 10.2455 19.9072 9.54661 17.464Z" fill="black"/>
</svg>
