<svg width="32" height="32" viewBox="0 0 32 32" fill="none" xmlns="http://www.w3.org/2000/svg">
<path d="M17.4251 22.8358C19.1102 21.4115 20.4062 19.2861 21.1172 16.7806C21.8283 14.2751 21.9158 11.5255 21.3666 8.94691C20.8174 6.36836 19.6613 4.1009 18.0728 2.4869C16.4844 0.872902 14.5499 0 12.5613 0C10.5728 0 8.63825 0.872902 7.0498 2.4869C5.46135 4.1009 4.30525 6.36836 3.75605 8.94691C3.20685 11.5255 3.29438 14.2751 4.00542 16.7806C4.71647 19.2861 6.01241 21.4115 7.69759 22.8358C4.75933 24.0702 2.14844 26.4249 0.179667 29.616C0.0330313 29.9142 -0.0269454 30.275 0.0112145 30.6291C0.0493744 30.9833 0.182991 31.306 0.386493 31.5356C0.589996 31.7651 0.849092 31.8854 1.1142 31.8733C1.3793 31.8612 1.6318 31.7177 1.82337 31.4701C3.14117 29.3591 4.785 27.662 6.63982 26.4979C8.49464 25.3337 10.5156 24.7305 12.5613 24.7305C14.607 24.7305 16.628 25.3337 18.4828 26.4979C20.3377 27.662 21.9815 29.3591 23.2993 31.4701C23.3879 31.6189 23.4978 31.7421 23.6226 31.8321C23.7473 31.9222 23.8842 31.9774 24.0251 31.9944C24.166 32.0114 24.308 31.9898 24.4426 31.9309C24.5771 31.8721 24.7015 31.7772 24.8083 31.6519C24.917 31.5309 25.0068 31.382 25.0725 31.2137C25.1382 31.0455 25.1785 30.8614 25.191 30.672C25.2035 30.4826 25.1881 30.2917 25.1455 30.1104C25.1029 29.9292 25.0341 29.7611 24.943 29.616C22.9742 26.4249 20.3633 24.0702 17.4251 22.8358V22.8358ZM5.55538 12.3655C5.55538 10.496 5.96627 8.66852 6.7361 7.11409C7.50592 5.55966 8.6001 4.34813 9.88027 3.63271C11.1604 2.91728 12.5691 2.73009 13.9281 3.09481C15.2871 3.45953 16.5355 4.35978 17.5153 5.68171C18.4951 7.00364 19.1623 8.68789 19.4327 10.5215C19.703 12.355 19.5642 14.2556 19.034 15.9828C18.5037 17.71 17.6057 19.1862 16.4536 20.2248C15.3015 21.2635 13.947 21.8179 12.5613 21.8179C10.7032 21.8179 8.92125 20.822 7.60738 19.0493C6.29351 17.2767 5.55538 14.8724 5.55538 12.3655V12.3655ZM31.4504 20.2L30.8307 19.7093C30.9025 19.1805 30.9025 18.6384 30.8307 18.1096L31.4504 17.6188C31.5746 17.5262 31.6839 17.401 31.7717 17.2506C31.8595 17.1002 31.9242 16.9276 31.9618 16.743C31.9995 16.5584 32.0094 16.3655 31.991 16.1756C31.9726 15.9858 31.9262 15.8028 31.8546 15.6375C31.7085 15.3045 31.4711 15.0625 31.1937 14.9638C30.9164 14.8652 30.6214 14.9178 30.3726 15.1103L29.7528 15.6011C29.4509 15.2518 29.1038 14.9807 28.7289 14.8013V13.8197C28.7289 13.434 28.6153 13.0642 28.4132 12.7914C28.2111 12.5187 27.9369 12.3655 27.6511 12.3655C27.3652 12.3655 27.091 12.5187 26.8889 12.7914C26.6868 13.0642 26.5732 13.434 26.5732 13.8197V14.8013C26.1983 14.9807 25.8512 15.2518 25.5493 15.6011L24.9295 15.1103C24.6807 14.9178 24.3857 14.8652 24.1084 14.9638C23.831 15.0625 23.5936 15.3045 23.4475 15.6375C23.3759 15.8028 23.3295 15.9858 23.3111 16.1756C23.2927 16.3655 23.3026 16.5584 23.3403 16.743C23.3779 16.9276 23.4426 17.1002 23.5304 17.2506C23.6182 17.401 23.7275 17.5262 23.8517 17.6188L24.4714 18.1096C24.3996 18.6384 24.3996 19.1805 24.4714 19.7093L23.8517 20.2C23.6481 20.3612 23.4893 20.6081 23.3998 20.9028C23.3102 21.1975 23.2949 21.5238 23.3561 21.8314C23.4173 22.139 23.5517 22.411 23.7386 22.6056C23.9255 22.8002 24.1545 22.9066 24.3906 22.9085C24.5805 22.9106 24.7671 22.8413 24.9295 22.7085L25.5493 22.2178C25.8512 22.5671 26.1983 22.8382 26.5732 23.0176V23.9992C26.5732 24.3848 26.6868 24.7547 26.8889 25.0274C27.091 25.3002 27.3652 25.4534 27.6511 25.4534C27.9369 25.4534 28.2111 25.3002 28.4132 25.0274C28.6153 24.7547 28.7289 24.3848 28.7289 23.9992V23.0176C29.1038 22.8382 29.4509 22.5671 29.7528 22.2178L30.3726 22.7085C30.535 22.8413 30.7216 22.9106 30.9115 22.9085C31.1476 22.9066 31.3767 22.8002 31.5635 22.6056C31.7504 22.411 31.8848 22.139 31.946 21.8314C32.0072 21.5238 31.9919 21.1975 31.9023 20.9028C31.8128 20.6081 31.654 20.3612 31.4504 20.2V20.2ZM26.5732 18.9094C26.5732 18.6218 26.6364 18.3407 26.7549 18.1015C26.8733 17.8624 27.0416 17.676 27.2386 17.5659C27.4355 17.4559 27.6523 17.4271 27.8613 17.4832C28.0704 17.5393 28.2625 17.6778 28.4132 17.8812C28.5639 18.0845 28.6666 18.3437 28.7082 18.6257C28.7498 18.9078 28.7284 19.2002 28.6468 19.4659C28.5653 19.7317 28.4271 19.9588 28.2499 20.1186C28.0726 20.2784 27.8642 20.3636 27.6511 20.3636C27.3652 20.3636 27.091 20.2104 26.8889 19.9377C26.6868 19.665 26.5732 19.2951 26.5732 18.9094Z" fill="black"/>
</svg>
