<svg width="50" height="50" viewBox="0 0 50 50" fill="none" xmlns="http://www.w3.org/2000/svg">
<path d="M45.8333 32.2916C45.8333 38.0448 41.1698 42.7083 35.4167 42.7083C33.5521 42.7083 31.8 42.2187 30.2854 41.3594C28.6814 40.4502 27.3471 39.1319 26.4186 37.539C25.4901 35.9461 25.0006 34.1354 25 32.2916C25 29.6166 26.0083 27.1771 27.6646 25.3333C28.6405 24.2437 29.8355 23.3724 31.1714 22.7764C32.5072 22.1805 33.9539 21.8733 35.4167 21.875C41.1698 21.875 45.8333 26.5385 45.8333 32.2916Z" stroke="black" stroke-width="4" stroke-linecap="round" stroke-linejoin="round"/>
<path d="M35.4166 12.5V21.875C33.9538 21.8733 32.5072 22.1805 31.1713 22.7764C29.8354 23.3724 28.6405 24.2437 27.6645 25.3333C25.9456 27.243 24.9962 29.7224 25 32.2917C25.0006 34.1354 25.4901 35.9461 26.4186 37.539C27.3471 39.1319 28.6813 40.4502 30.2854 41.3594C27.5125 42.1979 23.8312 42.7083 19.7916 42.7083C11.1625 42.7083 4.16663 40.376 4.16663 37.5V12.5" stroke="black" stroke-width="4" stroke-linecap="round" stroke-linejoin="round"/>
<path d="M4.16663 29.1667C4.16663 32.0427 11.1625 34.375 19.7916 34.375C21.6739 34.375 23.4791 34.2646 25.15 34.0604M4.16663 20.8333C4.16663 23.7094 11.1625 26.0417 19.7916 26.0417C22.6625 26.0417 25.3531 25.7833 27.6645 25.3333M40.1041 30.2083L34.375 35.9375L31.25 32.8125M35.4166 12.5C35.4166 15.376 28.4208 17.7083 19.7916 17.7083C11.1625 17.7083 4.16663 15.376 4.16663 12.5C4.16663 9.62395 11.1625 7.29166 19.7916 7.29166C28.4208 7.29166 35.4166 9.62395 35.4166 12.5Z" stroke="black" stroke-width="4" stroke-linecap="round" stroke-linejoin="round"/>
</svg>
