<svg width="32" height="32" viewBox="0 0 32 32" fill="none" xmlns="http://www.w3.org/2000/svg">
<path d="M32 23.8235L31.6512 23.6187C31.6245 23.6032 28.9595 22.0219 28.2971 20.1029L28.1493 19.6779L27.8763 20.0347C27.8677 20.0459 27.4891 20.5141 26.4293 21.0635C25.6448 16.5979 22.976 11.2667 19.4688 8.9936C20.4715 9.07467 21.4773 8.99147 22.448 8.6384C23.0325 8.42613 22.7803 7.4736 22.1904 7.68907C21.3947 7.97867 20.5973 8.0576 19.8016 8.01707C21.7552 6.22667 23.2891 3.48267 23.2891 1.47627C23.2891 0.994133 23.2891 0.0965333 22.5744 0.0965333C22.2875 0.0965333 22.0555 0.275733 21.7349 0.5232C21.2432 0.9024 20.5008 1.47627 19.4101 1.47627C18.9947 1.47627 18.2341 1.03787 17.6229 0.685867C16.8843 0.2608 16.4123 0 16.0155 0C15.3584 0 14.3925 0.5312 13.5403 1C13.1936 1.1904 12.7195 1.45173 12.6213 1.4768C11.3861 1.4768 10.6688 0.9072 10.1931 0.530133C9.91573 0.309333 9.71467 0.149333 9.4464 0.149333C8.74347 0.149333 8.74347 0.992533 8.74347 1.96907C8.74347 3.85387 10.1792 6.34187 12.0592 8.01387C10.8747 8.09867 9.70667 8.45653 8.88587 9.25173C8.43253 9.69013 9.11947 10.3856 9.5712 9.94827C10.2533 9.28693 11.1477 9.00373 12.1045 8.9488C12.1317 9.0464 12.1648 9.1424 12.2053 9.2368C8.1968 12.1173 5.34933 18.9573 5.34933 23.5749C5.34933 24.0304 5.38453 24.4427 5.43893 24.8309C4.40533 24.3717 4.02827 23.9691 4.0208 23.96L3.7456 23.6427L3.61013 24.0427C3.0112 25.8048 0.407467 27.3333 0.381333 27.3488L0 27.5701L0.387733 27.7797C0.523733 27.8533 0.658667 27.9179 0.794667 27.9877L0.549333 28.1579L0.678933 29.7792L10.8405 32L14.6933 29.5355C15.0821 29.5376 15.4757 29.5387 15.8763 29.5387L20.3797 32L30.5605 28.8V27.0885L30.2912 26.9269C30.4256 26.8416 30.56 26.7547 30.6939 26.6651L31.0507 26.4267L30.9723 26.3883L31.4261 26.264L31.5029 24.4848L31.2405 24.2987C31.3803 24.2149 31.5195 24.1296 31.6592 24.0411L32 23.8235M9.7136 1.96907C9.7136 1.73227 9.7168 1.54773 9.7216 1.40427C9.8032 1.46827 9.89813 1.53813 9.99947 1.61013C10.3104 2.35467 10.8987 3.42667 11.896 4.10187C13.1077 4.9232 12.9467 3.9792 13.5931 3.11733C14.2395 2.256 14.6768 1.8048 15.7595 4.02027C16.2315 4.98613 17.0181 2.28693 17.7659 1.8928C17.9637 2.00053 18.1611 2.1008 18.3547 2.18613C19.6955 4.3664 20.3168 3.6864 21.5077 1.87413C21.8352 1.68213 22.104 1.47627 22.3179 1.31147C22.3189 1.36107 22.32 1.416 22.32 1.47733C22.32 3.18933 20.9211 5.6448 19.208 7.2464C19.1271 7.04085 19.0113 6.85085 18.8656 6.6848C18.1739 5.90133 17.0928 6.77013 16.5803 7.34027C15.6709 7.048 14.1893 6.2432 13.224 6.704C12.9836 6.81553 12.7628 6.96519 12.5701 7.1472C10.9915 5.70827 9.7136 3.63093 9.7136 1.96907M18.3557 7.82187C18.1166 7.77116 17.8788 7.71425 17.6427 7.6512C17.9403 7.39467 18.2133 7.30507 18.328 7.6864C18.3403 7.728 18.3477 7.77547 18.3557 7.82187M14.3024 8.15307C14.1259 8.11947 13.9445 8.08907 13.7579 8.06507C13.6163 7.97635 13.4778 7.88296 13.3424 7.78507C13.8299 7.45813 14.6704 7.632 15.4736 7.90453C15.0773 7.94453 14.6864 8.03093 14.3024 8.15307M14.5445 9.56107C14.2459 9.63573 13.9205 9.60587 13.6395 9.49387C13.7536 9.4336 13.8688 9.38133 13.984 9.32853C14.1707 9.41867 14.3573 9.49387 14.5445 9.56107ZM4.67947 29.0021C3.40741 28.6337 2.17309 28.1457 0.993067 27.5445C1.7168 27.0688 3.29333 25.9184 3.9344 24.536C4.37387 24.8811 5.38827 25.5104 7.36373 25.9936C7.33013 26.048 7.28907 26.1061 7.2496 26.1632C5.5632 25.7216 4.60427 25.1632 4.5888 25.1536L4.35627 25.0149L4.2448 25.264C4.09813 25.5904 3.75413 25.6395 3.56267 25.6395C3.50933 25.6395 3.4736 25.6357 3.4688 25.6352L3.2784 25.6075L3.20907 25.7899C3.0672 26.1621 2.4848 26.6485 2.27147 26.8048L1.9152 27.0661L2.32267 27.2331C2.47413 27.2949 2.5152 27.352 2.51733 27.3669C2.52267 27.4037 2.45813 27.5008 2.38933 27.5568L2.07893 27.8069L2.44 27.9739C3.17973 28.3152 4.0176 28.5979 4.85547 28.8309C4.7888 28.8965 4.7312 28.9525 4.67947 29.0021ZM8.98027 27.0149C9.72587 27.1195 10.552 27.1856 11.4544 27.1856H11.4549C11.6427 27.1856 11.8331 27.1824 12.0272 27.1765C12.0401 27.2168 12.0586 27.255 12.0821 27.2901C12.1296 27.3621 12.1936 27.4219 12.2747 27.4683L10.9136 28.6315C10.8877 28.6303 10.8617 28.6298 10.8357 28.6299C10.2293 28.6299 9.77707 28.8528 9.56 29.2496C8.73758 29.1447 7.91897 29.0118 7.1056 28.8512C7.75944 28.2694 8.38504 27.6566 8.98027 27.0149M2.92747 27.6533C2.9808 27.5525 3.01547 27.4304 2.9968 27.2971C2.97907 27.1768 2.9214 27.0659 2.83307 26.9824C3.07253 26.7771 3.40267 26.4603 3.584 26.1323C3.99627 26.1264 4.33653 25.9701 4.55093 25.6939C4.912 25.8827 5.72533 26.264 6.92693 26.5947C6.43573 27.2107 5.77387 27.9093 5.2592 28.4288C4.45707 28.2165 3.64907 27.9605 2.92747 27.6533M10.528 29.8981L10.4187 29.8987C9.95947 29.8987 8.43787 29.8613 6.42773 29.4427C6.49813 29.3829 6.5712 29.3216 6.63893 29.2629C8.26987 29.6037 9.58507 29.7499 9.68373 29.7611L9.87893 29.7819L9.9392 29.5925C10.0709 29.184 10.5568 29.1237 10.8352 29.1237C10.9115 29.1237 10.9621 29.1285 10.968 29.1291L11.0715 29.1403L13.4357 27.12L12.8037 27.0992C12.5925 27.0917 12.5035 27.0443 12.4816 27.0117L12.6155 26.6613L12.2453 26.6768C11.9755 26.6885 11.712 26.6944 11.4544 26.6944H11.4539C10.7093 26.6944 10.0187 26.6453 9.38027 26.568L9.52853 26.3931C10.8171 26.5653 12.36 26.6715 14.2229 26.6581C13.7781 27.2821 12.6688 28.6085 10.528 29.8981M15.8741 27.5808V28.5541C15.5707 28.5541 15.2752 28.5531 14.9861 28.5509L14.8992 27.4555L14.1771 27.5141C14.6635 26.9392 14.8709 26.5557 14.8896 26.5211L15.0853 26.1509L14.672 26.1584C10.7157 26.2309 8.13547 25.7595 6.50667 25.2357C6.38773 24.7547 6.31893 24.2107 6.31893 23.5755C6.31893 19.2432 9.08747 12.6949 12.7632 10.0411C13.4144 10.6709 14.4021 10.9467 15.3408 10.3339C15.5467 10.1995 15.7259 10.0235 15.8939 9.83627C15.9339 9.83733 15.9749 9.8464 16.0155 9.8464C16.1499 9.8464 16.2864 9.8352 16.4224 9.81813C16.5947 9.88693 16.7632 9.95627 16.9195 10.0251C17.6677 10.3547 18.3067 10.1499 18.7429 9.69547C22.1099 11.7328 24.8075 17.1221 25.5173 21.4784C23.9781 22.0939 21.5365 22.6944 17.7893 22.8C18.5285 22.3776 19.0832 21.6672 18.8837 20.7339C18.6741 19.7472 17.8496 19.4699 16.9957 19.4245C16.9936 18.9611 16.9936 18.4987 16.9968 18.0352C17.2587 18.1509 17.5099 18.2843 17.7381 18.4267C18.1413 18.68 18.5061 18.0235 18.1056 17.7701C17.7583 17.5518 17.3876 17.3731 17.0005 17.2373C17.0059 16.7008 17.0085 16.1653 17.0085 15.6299C17.0091 15.1392 16.28 15.1392 16.28 15.6299C16.28 16.1008 16.2768 16.5712 16.2725 17.0411C15.8845 16.9734 15.4882 16.9668 15.0981 17.0213C15.0347 16.6683 14.9578 16.3178 14.8677 15.9707C14.7472 15.4981 14.0432 15.6981 14.1653 16.1723C14.2549 16.5131 14.328 16.8523 14.3883 17.1963C14.3573 17.208 14.3237 17.2139 14.2933 17.2277C13.3056 17.6187 12.7029 18.6155 13.4256 19.5451C13.7621 19.9781 14.2021 20.1531 14.6837 20.2112C14.7099 20.8528 14.7264 21.4949 14.7451 22.136C14.4224 21.9264 14.1285 21.6576 13.8624 21.3733C13.5328 21.0256 13.0181 21.5627 13.3472 21.9099C13.7947 22.3861 14.2645 22.7461 14.7739 22.9765C14.7968 23.5243 14.8293 24.0736 14.8827 24.6187C14.9296 25.1024 15.6592 25.1051 15.6117 24.6187C15.5668 24.1472 15.5335 23.6747 15.512 23.2016C15.7893 23.2496 16.0805 23.2619 16.3899 23.2325C16.4245 23.7371 16.4651 24.2416 16.5227 24.7461C16.5557 25.0352 16.832 25.1488 17.0357 25.0901L16.9904 26.1376C16.6693 26.1664 16.3419 26.1931 16.0005 26.2155L15.5941 26.2421L15.8107 26.592C15.8325 26.6272 16.0784 27.016 16.6272 27.5819H15.8741V27.5808ZM29.1477 24.0704C28.4773 24.3856 27.6293 24.6747 26.7653 24.9269C26.2341 24.3781 25.5547 23.6459 25.0475 22.9963C26.1776 22.6539 26.8101 22.3008 27.0955 22.1104C27.3211 22.3093 27.6197 22.4128 27.9733 22.4123C28.0907 22.4123 28.1947 22.4011 28.2747 22.3883C28.5307 22.72 28.9435 23.1029 29.2016 23.3317C29.0795 23.4571 29.0203 23.5957 29.0251 23.7456C29.0293 23.8736 29.0805 23.9824 29.1477 24.0704M25.3317 25.8229C25.4405 25.9189 25.5531 26.0171 25.6677 26.1163C23.5056 26.6896 21.8965 26.752 21.5461 26.7579C19.3072 25.392 18.1467 23.9467 17.6992 23.296C19.5728 23.2491 21.1216 23.0795 22.4133 22.8459C22.4659 22.9104 22.519 22.9744 22.5728 23.0379C21.5346 23.1996 20.4882 23.3034 19.4384 23.3488L19.008 23.3669L19.2448 23.7291C19.2443 23.7296 19.1963 23.8192 18.8784 23.8811L18.3616 23.9819L20.9024 26.0389L21.0208 26.0069C21.0235 26.0064 21.2475 25.9461 21.5184 25.9461C21.9093 25.9461 22.1765 26.0651 22.3109 26.2976L22.3963 26.4448L22.5621 26.4155C23.4911 26.2461 24.4148 26.0485 25.3317 25.8229M17.8133 24.2555L17.2064 24.2224C17.1781 23.9195 17.1499 23.6165 17.1285 23.3136C17.2352 23.4907 17.4539 23.8235 17.8133 24.2555ZM17.0624 22.3029C17.0274 21.585 17.0063 20.8665 16.9989 20.1477C17.0864 20.1509 17.1728 20.1589 17.2549 20.1707C18.1979 20.3136 18.4443 21.3621 17.7083 21.952C17.5163 22.104 17.2949 22.2155 17.0624 22.3029ZM22.6299 25.904C22.3909 25.6091 22.0107 25.4544 21.5189 25.4544C21.3136 25.4544 21.1328 25.4821 21.0187 25.5045L19.4213 24.2101C19.5541 24.1339 19.6437 24.0373 19.6928 23.9189C19.7049 23.8895 19.7142 23.8589 19.7205 23.8277C20.9867 23.7584 22.0533 23.632 22.9552 23.4773C23.3925 23.9653 24.0352 24.6384 24.8875 25.4208C23.8405 25.6699 22.9675 25.8405 22.6299 25.904M16.2693 20.1669C16.2795 20.9397 16.2987 21.7147 16.3397 22.4869C16.2709 22.4976 16.2032 22.5109 16.1355 22.5179C15.9061 22.544 15.6885 22.5248 15.4816 22.4725C15.4555 21.7259 15.4384 20.9776 15.4101 20.2304C15.6971 20.2171 15.9877 20.1888 16.2693 20.1669M15.3733 19.4923C15.34 18.9062 15.2849 18.3217 15.208 17.7397C15.5615 17.6911 15.921 17.7094 16.2677 17.7936C16.2639 18.3388 16.263 18.8841 16.2651 19.4293C16.0309 19.4421 15.8085 19.4645 15.6128 19.4821C15.5331 19.4883 15.4533 19.4917 15.3733 19.4923M14.6416 19.3989C14.5963 19.3867 14.5515 19.3771 14.5051 19.3616C14.2917 19.2893 14.0985 19.1674 13.9413 19.0059C13.4859 18.5808 14.1109 18.1637 14.5051 17.9659C14.5669 18.4405 14.6096 18.9195 14.6416 19.3989M20.528 29.7808C18.2128 28.5979 16.9707 27.2832 16.4773 26.6741C16.832 26.6475 17.1675 26.6155 17.4997 26.5819L21.296 29.0459L29.6213 26.7589C25.328 29.3467 21.0864 29.7408 20.528 29.7808M27.4037 25.5728C27.3355 25.5045 27.2539 25.4235 27.1573 25.3259C28.1045 25.0389 29.0208 24.7061 29.704 24.3403L30.1195 24.1168L29.6981 23.9024C29.6037 23.8539 29.5115 23.7648 29.5099 23.7312C29.5109 23.7184 29.5483 23.6501 29.7099 23.5573L30.0181 23.3803L29.744 23.152C29.7355 23.1451 28.8805 22.4352 28.5803 21.9781L28.4811 21.8288L28.3109 21.8784C28.3093 21.8784 28.1632 21.9205 27.9733 21.9205C27.68 21.9211 27.4603 21.8251 27.3195 21.6363L27.1637 21.4299L26.9685 21.5979C26.9584 21.6064 26.3541 22.1019 24.7333 22.5701C24.68 22.4932 24.6286 22.415 24.5792 22.3355C26.5445 21.7397 27.5488 21.0187 27.984 20.624C28.6827 22.1355 30.3461 23.3531 31.0683 23.8304C29.9082 24.5324 28.6805 25.1161 27.4037 25.5728" fill="black"/>
</svg>
