<svg width="32" height="32" viewBox="0 0 32 32" fill="none" xmlns="http://www.w3.org/2000/svg">
<path d="M10.8571 0C9.79757 0.00589827 8.7826 0.597791 8.03337 1.64672C7.28414 2.69565 6.86136 4.1166 6.85714 5.6C6.85714 8.6752 8.66057 11.2 10.8571 11.2C13.0537 11.2 14.8571 8.6752 14.8571 5.6C14.8571 2.5248 13.0537 0 10.8571 0ZM21.1429 0C20.0833 0.00589827 19.0683 0.597791 18.3191 1.64672C17.5699 2.69565 17.1471 4.1166 17.1429 5.6C17.1429 8.6752 18.9463 11.2 21.1429 11.2C23.3394 11.2 25.1429 8.6752 25.1429 5.6C25.1429 2.5248 23.3394 0 21.1429 0ZM10.8571 3.2C11.8171 3.2 12.5714 4.256 12.5714 5.6C12.5714 6.944 11.8171 8 10.8571 8C9.89714 8 9.14286 6.944 9.14286 5.6C9.14286 4.256 9.89714 3.2 10.8571 3.2ZM21.1429 3.2C22.1029 3.2 22.8571 4.256 22.8571 5.6C22.8571 6.944 22.1029 8 21.1429 8C20.1829 8 19.4286 6.944 19.4286 5.6C19.4286 4.256 20.1829 3.2 21.1429 3.2ZM5.71429 9.6C3.2 9.6 1.14286 12.48 1.14286 16C1.14286 17.7808 1.688 19.3872 2.536 20.5504C1.75808 21.2853 1.12034 22.2754 0.678322 23.4344C0.236308 24.5934 0.0034374 25.8862 0 27.2H2.28571C2.28571 24.5312 3.808 22.4 5.71429 22.4C7.62057 22.4 9.14286 24.5312 9.14286 27.2H11.4286C11.4251 25.8862 11.1923 24.5934 10.7502 23.4344C10.3082 22.2754 9.67049 21.2853 8.89257 20.5504C9.74057 19.3872 10.2857 17.7824 10.2857 16C10.2857 12.48 8.22857 9.6 5.71429 9.6ZM11.4286 27.2C10.7143 28.5376 10.2857 30.2192 10.2857 32H12.5714C12.5714 29.3312 14.0937 27.2 16 27.2C17.9063 27.2 19.4286 29.3312 19.4286 32H21.7143C21.7123 30.2695 21.3115 28.5861 20.5714 27.2C20.1829 26.4752 19.7143 25.856 19.1783 25.3504C20.0263 24.1872 20.5714 22.5824 20.5714 20.8C20.5714 17.28 18.5143 14.4 16 14.4C13.4857 14.4 11.4286 17.28 11.4286 20.8C11.4286 22.5808 11.9737 24.1872 12.8217 25.3504C12.2867 25.8535 11.8158 26.4787 11.4286 27.2V27.2ZM20.5714 27.2H22.8571C22.8571 24.5312 24.3794 22.4 26.2857 22.4C28.192 22.4 29.7143 24.5312 29.7143 27.2H32C31.9966 25.8862 31.7637 24.5934 31.3217 23.4344C30.8797 22.2754 30.2419 21.2853 29.464 20.5504C30.312 19.3872 30.8571 17.7824 30.8571 16C30.8571 12.48 28.8 9.6 26.2857 9.6C23.7714 9.6 21.7143 12.48 21.7143 16C21.7143 17.7808 22.2594 19.3872 23.1074 20.5504C22.3295 21.2853 21.6918 22.2754 21.2498 23.4344C20.8077 24.5934 20.5749 25.8862 20.5714 27.2V27.2ZM5.71429 12.8C6.99086 12.8 8 14.2128 8 16C8 17.7872 6.99086 19.2 5.71429 19.2C4.43771 19.2 3.42857 17.7872 3.42857 16C3.42857 14.2128 4.43771 12.8 5.71429 12.8ZM26.2857 12.8C27.5623 12.8 28.5714 14.2128 28.5714 16C28.5714 17.7872 27.5623 19.2 26.2857 19.2C25.0091 19.2 24 17.7872 24 16C24 14.2128 25.0091 12.8 26.2857 12.8ZM16 17.6C17.2766 17.6 18.2857 19.0128 18.2857 20.8C18.2857 22.5872 17.2766 24 16 24C14.7234 24 13.7143 22.5872 13.7143 20.8C13.7143 19.0128 14.7234 17.6 16 17.6Z" fill="black"/>
</svg>
